<svg width="51" height="51" viewBox="0 0 51 51" fill="none" xmlns="http://www.w3.org/2000/svg">
<rect x="0.835938" y="0.930664" width="50" height="50" rx="25" fill="#19B1BD"/>
<path d="M41.1895 27.6441C39.1294 40.7188 31.9975 40.0857 31.9975 40.0857H13.6133L14.0671 37.1069C15.3348 35.7786 16.7071 34.5567 18.2276 33.4824C19.1955 32.7982 20.2183 32.2072 21.316 31.7535C21.4624 31.6931 21.5501 31.7206 21.6527 31.8138C22.2657 32.381 22.9517 32.8384 23.7476 33.0931C24.3348 33.2793 24.9477 33.3836 25.5442 33.5427C25.9872 33.6618 26.4261 33.7898 26.8563 33.9473C27.1982 34.0717 27.4288 34.3553 27.63 34.6462C28.2228 35.5078 29.1651 35.5591 29.9667 35.1678C31.0881 34.6187 31.8784 33.7643 32.2773 32.5769C32.486 31.9567 32.5609 31.3216 32.2207 30.7198C32.078 30.4654 31.8531 30.2568 31.7248 29.9991C31.5455 29.6383 31.3862 29.2599 31.2802 28.8718C31.0277 27.9663 30.8121 27.0476 30.5831 26.1347C30.5246 25.9059 30.5281 25.6864 30.5977 25.4503C30.6727 25.1906 30.6947 24.9144 30.7203 24.6454C30.7901 23.9099 30.5903 23.2183 30.3199 22.5522C30.0232 21.8204 29.67 21.1124 29.3573 20.3859C29.0004 19.5589 29.3846 18.7831 30.2684 18.6038C30.9254 18.4704 31.5948 18.3882 32.2609 18.3166C33.1153 18.2215 33.9679 18.1246 34.7767 17.8156C35.5945 17.5043 36.2477 16.9957 36.676 16.2201C36.6941 16.1852 36.7089 16.1485 36.7233 16.1119C36.7288 16.1027 36.7198 16.0862 36.7068 16.0351C36.5532 16.1101 36.4159 16.185 36.2732 16.2472C35.6073 16.5363 34.9028 16.648 34.1874 16.6353C33.2104 16.615 32.2334 16.5583 31.2583 16.4907C30.1421 16.4119 29.0279 16.284 27.9082 16.3645C27.1875 16.4158 26.4812 16.5456 25.8847 17.0047C25.4637 17.3287 25.2186 17.7603 25.1052 18.2675C25.0685 18.4301 25.0118 18.463 24.8453 18.432C23.0121 18.0897 21.1659 17.8392 19.298 17.8043C18.5312 17.7899 17.7647 17.7987 16.9962 17.8117L17.1023 17.1164L17.814 12.4307H32.0761C43.4876 12.4307 41.1895 27.6441 41.1895 27.6441Z" fill="white"/>
<path d="M27.6101 25.2894C23.179 26.5481 19.0914 28.4659 15.4102 31.1464L15.5216 30.4125L16.0284 27.0844C16.359 26.9545 16.6927 26.8325 17.0292 26.7185C17.5931 26.5282 18.1638 26.3586 18.7401 26.2099C19.375 26.0471 20.0172 25.919 20.6558 25.7726C20.7782 25.7453 20.8953 25.6921 21.0179 25.6738C21.5351 25.5919 22.0535 25.5181 22.573 25.4524C23.1769 25.3757 23.7825 25.3042 24.3882 25.2512C24.8364 25.2128 25.2865 25.2054 25.7348 25.1798C25.9744 25.167 26.2122 25.1268 26.4483 25.1323C26.8306 25.1451 27.213 25.1872 27.5937 25.2165C27.5992 25.2401 27.6046 25.2658 27.6101 25.2896M16.6233 23.158L16.7331 22.4334L16.9801 20.8072C18.3286 20.7723 19.6752 20.8051 21.0217 20.9222C22.4067 21.0412 23.7901 21.2022 25.1438 21.5186C26.0422 21.7291 26.9188 22.0254 27.8023 22.2872C27.8738 22.3092 27.9358 22.3622 27.9963 22.417C24.1523 22.0712 20.3649 22.2615 16.6233 23.1582" fill="white"/>
</svg>
