<svg xmlns="http://www.w3.org/2000/svg" width="101" height="93.706" viewBox="0 0 101 93.706">
  <g id="metamask-fox" transform="translate(-31.3 -35)">
    <path id="Path_33" data-name="Path 33" d="M213.62,35.5,174.6,64.48l7.216-17.1Z" transform="translate(-86.8)" fill="#e2761b" stroke="#e2761b" stroke-linecap="round" stroke-linejoin="round" stroke-width="1"/>
    <g id="Group_9" data-name="Group 9" transform="translate(32.624 35.5)">
      <path id="Path_34" data-name="Path 34" d="M44.4,35.5,83.106,64.755,76.243,47.382Z" transform="translate(-40.282 -35.5)" fill="#e4761b" stroke="#e4761b" stroke-linecap="round" stroke-linejoin="round" stroke-width="1"/>
      <path id="Path_35" data-name="Path 35" d="M222.192,206.8,211.8,222.722l22.235,6.118,6.392-21.686Z" transform="translate(-142.035 -139.624)" fill="#e4761b" stroke="#e4761b" stroke-linecap="round" stroke-linejoin="round" stroke-width="1"/>
      <path id="Path_36" data-name="Path 36" d="M33.9,207.153l6.353,21.686,22.235-6.118L52.1,206.8Z" transform="translate(-33.9 -139.624)" fill="#e4761b" stroke="#e4761b" stroke-linecap="round" stroke-linejoin="round" stroke-width="1"/>
      <path id="Path_37" data-name="Path 37" d="M94,117.473l-6.2,9.373,22.078.98-.784-23.725Z" transform="translate(-66.663 -77.198)" fill="#e4761b" stroke="#e4761b" stroke-linecap="round" stroke-linejoin="round" stroke-width="1"/>
      <path id="Path_38" data-name="Path 38" d="M190.4,117.047,175.11,103.4l-.51,24,22.039-.98Z" transform="translate(-119.424 -76.773)" fill="#e4761b" stroke="#e4761b" stroke-linecap="round" stroke-linejoin="round" stroke-width="1"/>
      <path id="Path_39" data-name="Path 39" d="M106.8,223.512l13.255-6.471L108.6,208.1Z" transform="translate(-78.212 -140.414)" fill="#e4761b" stroke="#e4761b" stroke-linecap="round" stroke-linejoin="round" stroke-width="1"/>
      <path id="Path_40" data-name="Path 40" d="M177.9,217.041l13.294,6.471L189.351,208.1Z" transform="translate(-121.429 -140.414)" fill="#e4761b" stroke="#e4761b" stroke-linecap="round" stroke-linejoin="round" stroke-width="1"/>
    </g>
    <g id="Group_10" data-name="Group 10" transform="translate(61.212 112.127)">
      <path id="Path_41" data-name="Path 41" d="M191.194,237.371,177.9,230.9l1.059,8.667-.118,3.647Z" transform="translate(-150.018 -230.9)" fill="#d7c1b3" stroke="#d7c1b3" stroke-linecap="round" stroke-linejoin="round" stroke-width="1"/>
      <path id="Path_42" data-name="Path 42" d="M106.8,237.371l12.353,5.843-.078-3.647.98-8.667Z" transform="translate(-106.8 -230.9)" fill="#d7c1b3" stroke="#d7c1b3" stroke-linecap="round" stroke-linejoin="round" stroke-width="1"/>
    </g>
    <path id="Path_43" data-name="Path 43" d="M121.659,182.924,110.6,179.669l7.8-3.569Z" transform="translate(-47.898 -85.463)" fill="#233447" stroke="#233447" stroke-linecap="round" stroke-linejoin="round" stroke-width="1"/>
    <path id="Path_44" data-name="Path 44" d="M179.7,182.924l3.255-6.824,7.843,3.569Z" transform="translate(-89.9 -85.463)" fill="#233447" stroke="#233447" stroke-linecap="round" stroke-linejoin="round" stroke-width="1"/>
    <g id="Group_11" data-name="Group 11" transform="translate(50.82 85.147)">
      <path id="Path_45" data-name="Path 45" d="M90.692,222.722,92.575,206.8l-12.274.353Z" transform="translate(-80.3 -189.271)" fill="#cd6116" stroke="#cd6116" stroke-linecap="round" stroke-linejoin="round" stroke-width="1"/>
      <path id="Path_46" data-name="Path 46" d="M207,206.8l1.882,15.922,10.392-15.569Z" transform="translate(-157.314 -189.271)" fill="#cd6116" stroke="#cd6116" stroke-linecap="round" stroke-linejoin="round" stroke-width="1"/>
      <path id="Path_47" data-name="Path 47" d="M196.639,162.1l-22.039.98,2.039,11.333,3.255-6.824,7.843,3.569Z" transform="translate(-137.62 -162.1)" fill="#cd6116" stroke="#cd6116" stroke-linecap="round" stroke-linejoin="round" stroke-width="1"/>
      <path id="Path_48" data-name="Path 48" d="M96.741,171.159l7.843-3.569,3.216,6.824,2.078-11.333L87.8,162.1Z" transform="translate(-84.859 -162.1)" fill="#cd6116" stroke="#cd6116" stroke-linecap="round" stroke-linejoin="round" stroke-width="1"/>
    </g>
    <g id="Group_12" data-name="Group 12" transform="translate(53.761 85.147)">
      <path id="Path_49" data-name="Path 49" d="M87.8,162.1l9.255,18.039-.314-8.98Z" transform="translate(-87.8 -162.1)" fill="#e4751f" stroke="#e4751f" stroke-linecap="round" stroke-linejoin="round" stroke-width="1"/>
      <path id="Path_50" data-name="Path 50" d="M207.492,171.159l-.392,8.98,9.294-18.039Z" transform="translate(-160.316 -162.1)" fill="#e4751f" stroke="#e4751f" stroke-linecap="round" stroke-linejoin="round" stroke-width="1"/>
      <path id="Path_51" data-name="Path 51" d="M140.878,164.6,138.8,175.933l2.588,13.373.588-17.608Z" transform="translate(-118.8 -163.62)" fill="#e4751f" stroke="#e4751f" stroke-linecap="round" stroke-linejoin="round" stroke-width="1"/>
      <path id="Path_52" data-name="Path 52" d="M172.959,164.6l-1.059,7.059.471,17.647L175,175.933Z" transform="translate(-138.92 -163.62)" fill="#e4751f" stroke="#e4751f" stroke-linecap="round" stroke-linejoin="round" stroke-width="1"/>
    </g>
    <path id="Path_53" data-name="Path 53" d="M175.727,188.455,173.1,201.827l1.882,1.294,11.451-8.941.392-8.98Z" transform="translate(-85.888 -90.994)" fill="#f6851b" stroke="#f6851b" stroke-linecap="round" stroke-linejoin="round" stroke-width="1"/>
    <path id="Path_54" data-name="Path 54" d="M110.6,185.2l.314,8.98,11.451,8.941,1.882-1.294-2.588-13.373Z" transform="translate(-47.898 -90.994)" fill="#f6851b" stroke="#f6851b" stroke-linecap="round" stroke-linejoin="round" stroke-width="1"/>
    <path id="Path_55" data-name="Path 55" d="M135.624,253.243l.118-3.647-.98-.863H119.976l-.9.863.078,3.647L106.8,247.4l4.314,3.529,8.745,6.078h15.02l8.784-6.078,4.314-3.529Z" transform="translate(-45.588 -128.802)" fill="#c0ad9e" stroke="#c0ad9e" stroke-linecap="round" stroke-linejoin="round" stroke-width="1"/>
    <path id="Path_56" data-name="Path 56" d="M153.708,228.894l-1.882-1.294H140.963l-1.882,1.294-.98,8.667.9-.863h14.784l.98.863Z" transform="translate(-64.614 -116.767)" fill="#161616" stroke="#161616" stroke-linecap="round" stroke-linejoin="round" stroke-width="1"/>
    <g id="Group_13" data-name="Group 13" transform="translate(31.8 35.5)">
      <path id="Path_57" data-name="Path 57" d="M217.273,66.363l3.333-16L215.625,35.5,177.9,63.5l14.51,12.275,20.51,6,4.549-5.294-1.961-1.412,3.137-2.863-2.431-1.882,3.137-2.392Z" transform="translate(-120.606 -35.5)" fill="#763d16" stroke="#763d16" stroke-linecap="round" stroke-linejoin="round" stroke-width="1"/>
      <path id="Path_58" data-name="Path 58" d="M31.8,50.363l3.333,16-2.118,1.569,3.137,2.392-2.392,1.882L36.9,75.069,34.937,76.48l4.51,5.294,20.51-6L74.467,63.5l-37.725-28Z" transform="translate(-31.8 -35.5)" fill="#763d16" stroke="#763d16" stroke-linecap="round" stroke-linejoin="round" stroke-width="1"/>
    </g>
    <path id="Path_59" data-name="Path 59" d="M230.669,144.2l-20.51-6,6.235,9.373L207.1,165.612l12.235-.157h18.235Z" transform="translate(-106.555 -62.425)" fill="#f6851b" stroke="#f6851b" stroke-linecap="round" stroke-linejoin="round" stroke-width="1"/>
    <path id="Path_60" data-name="Path 60" d="M61.233,138.2l-20.51,6L33.9,165.455H52.1l12.2.157-9.255-18.039Z" transform="translate(-1.276 -62.425)" fill="#f6851b" stroke="#f6851b" stroke-linecap="round" stroke-linejoin="round" stroke-width="1"/>
    <path id="Path_61" data-name="Path 61" d="M144.816,104.545l1.294-22.627L152.071,65.8H125.6l5.882,16.118,1.373,22.627.471,7.137.039,17.569h10.863l.078-17.569Z" transform="translate(-57.016 -18.418)" fill="#f6851b" stroke="#f6851b" stroke-linecap="round" stroke-linejoin="round" stroke-width="1"/>
  </g>
</svg>
