<svg width="39" height="38" viewBox="0 0 39 38" fill="none" xmlns="http://www.w3.org/2000/svg">
<path d="M19.5 38C29.9934 38 38.5 29.4934 38.5 19C38.5 8.50659 29.9934 0 19.5 0C9.00659 0 0.5 8.50659 0.5 19C0.5 29.4934 9.00659 38 19.5 38Z" fill="#19B1BD"/>
<path fill-rule="evenodd" clip-rule="evenodd" d="M21.7816 20.6426V20.6403C21.651 20.6498 20.9777 20.6902 19.4755 20.6902C18.2761 20.6902 17.4318 20.6545 17.1349 20.6403V20.6438C12.5179 20.4408 9.07178 19.6368 9.07178 18.675C9.07178 17.7143 12.5179 16.9103 17.1349 16.7037V19.8435C17.4365 19.8648 18.301 19.9159 19.4957 19.9159C20.929 19.9159 21.6474 19.8565 21.7816 19.8447V16.7061C26.3891 16.9115 29.8269 17.7155 29.8269 18.675C29.8269 19.6368 26.3891 20.4384 21.7816 20.6426ZM21.7816 16.3795V13.5699H28.2107V9.2854H10.7058V13.5699H17.1349V16.3783C11.9099 16.6182 7.98047 17.6537 7.98047 18.8935C7.98047 20.1332 11.9099 21.1675 17.1349 21.4086V30.4122H21.7816V21.4062C26.9983 21.1663 30.9182 20.132 30.9182 18.8935C30.9182 17.6549 26.9983 16.6206 21.7816 16.3795Z" fill="white"/>
</svg>
