<svg xmlns="http://www.w3.org/2000/svg" width="100" height="61.29" viewBox="0 0 100 61.29">
  <g id="Page-1" transform="translate(-0.038 -0.34)">
    <g id="walletconnect-logo-alt" transform="translate(0.038 0.34)">
      <path id="WalletConnect" d="M20.51,12.315a42.392,42.392,0,0,1,59.056,0l1.963,1.922a2.014,2.014,0,0,1,0,2.891L74.815,23.7a1.06,1.06,0,0,1-1.476,0l-2.7-2.644a29.574,29.574,0,0,0-41.2,0l-2.892,2.832a1.06,1.06,0,0,1-1.476,0l-6.714-6.573a2.014,2.014,0,0,1,0-2.891ZM93.451,25.91l5.975,5.85a2.014,2.014,0,0,1,0,2.891L72.483,61.032a2.12,2.12,0,0,1-2.953,0h0L50.407,42.309a.53.53,0,0,0-.738,0h0L30.546,61.032a2.12,2.12,0,0,1-2.953,0h0L.649,34.651a2.014,2.014,0,0,1,0-2.891l5.975-5.85a2.12,2.12,0,0,1,2.953,0L28.7,44.633a.53.53,0,0,0,.738,0h0L48.561,25.91a2.12,2.12,0,0,1,2.953,0h0L70.637,44.633a.53.53,0,0,0,.738,0L90.5,25.91A2.12,2.12,0,0,1,93.451,25.91Z" transform="translate(-0.038 -0.34)" fill="#3b99fc"/>
    </g>
  </g>
</svg>
