<svg width="1500" height="671" viewBox="0 0 1500 671" fill="none" xmlns="http://www.w3.org/2000/svg">
<g clip-path="url(#clip0_5896_37080)">
<path d="M7 473.56H5.67V522.43H0V572.95H5.68V584.53H7V572.95H12.69V522.43H7V473.56Z" fill="#E2E5F1"/>
<path d="M25.8381 534.36H24.5081V543.64H18.8281V551.75H24.5081V604.81H25.8381V551.75H31.5181V543.64H25.8381V534.36Z" fill="#E2E5F1"/>
<path d="M44.6584 523.64H43.3284V532.04H37.6484V582.56H43.3284V612.84H44.6584V582.51H50.3484V532.04H44.6584V523.64Z" fill="#E2E5F1"/>
<path d="M63.4905 483.82H62.1605V500.82H56.4805V551.33H62.1605V554.23H63.4905V551.33H69.1805V500.86H63.4905V483.82Z" fill="#8AE2E9"/>
<path d="M82.3225 493.56H81.0025V522.17H75.3125V572.69H81.0025V584.27H82.3325V572.69H88.0025V522.17H82.3225V493.56Z" fill="#E2E5F1"/>
<path d="M101.153 516.56H99.8228V542.43H94.1328V567.69H99.8228V587.04H101.153V567.69H106.833V542.43H101.153V516.56Z" fill="#E2E5F1"/>
<path d="M120 546.15H118.64V554.5H113V605.04H118.68V636.37H120V605.04H125.69V554.5H120V546.15Z" fill="#E2E5F1"/>
<path d="M138.799 534.04H137.469V579.72H131.789V592.91H137.469V604.49H138.799V592.95H144.479V579.76H138.799V534.04Z" fill="#E2E5F1"/>
<path d="M157.629 506.15H156.299V548.15H150.609V598.67H156.299V610.25H157.629V598.63H163.309V548.11H157.629V506.15Z" fill="#E2E5F1"/>
<path d="M176.447 489.79H175.117V525.04H169.438V548.68H175.117V560.24H176.447V548.66H182.137V525.04H176.447V489.79Z" fill="#E2E5F1"/>
<path d="M195.28 541.25H194V571.34H188.32V578.34H194V611.67H195.33V578.37H201V571.37H195.32L195.28 541.25Z" fill="#E2E5F1"/>
<path d="M214.11 534.04H212.78V542.39H207.09V608.24H212.78V628.66H214.11V608.24H219.79V542.43H214.11V534.04Z" fill="#8AE2E9"/>
<path d="M232.942 498.35H231.602V528.19H225.922V555.55H231.602V568.8H232.942V555.55H238.622V528.19H232.942V498.35Z" fill="#E2E5F1"/>
<path d="M251.76 506.64H250.43V515.04H244.75V565.56H250.43V577.13H251.76V565.52H257.44V515.04H251.76V506.64Z" fill="#E2E5F1"/>
<path d="M270.59 495.63H269.26V503.98H263.57V527.04H269.26V566.04H270.59V527.04H276.27V503.98H270.59V495.63Z" fill="#E2E5F1"/>
<path d="M289.408 548.75H288.078V557.11H282.398V607.63H288.078V635.04H289.408V607.63H295.098V557.11H289.408V548.75Z" fill="#E2E5F1"/>
<path d="M308.24 548.75H306.91V557.11H301.23V566.45H306.91V619.21H308.24V566.45H313.92V557.11H308.24V548.75Z" fill="#E2E5F1"/>
<path d="M327.071 558.34H325.741V588.12H320.051V613.38H325.741V628.79H327.071V613.38H332.751V588.12H327.071V558.34Z" fill="#8AE2E9"/>
<path d="M345.889 568.75H344.559V602.37H338.879V631.92H344.559V639.21H345.889V631.92H351.579V602.37H345.889V568.75Z" fill="#E2E5F1"/>
<path d="M364.719 565.11H363.389V573.46H357.699V623.97H363.389V635.56H364.719V623.97H370.399V573.46H364.719V565.11Z" fill="#E2E5F1"/>
<path d="M383.551 591.84H382.221V609.84H376.531V623.94H382.221V662.26H383.551V623.97H389.231V609.87H383.551V591.84Z" fill="#E2E5F1"/>
<path d="M402.37 601.48H401V609.83H395.32V637.18H401V671.93H402.33V637.18H408.02V609.83H402.33L402.37 601.48Z" fill="#E2E5F1"/>
<path d="M440 553.38H438.7V561.73H433V577.21H438.69V623.83H440V577.21H445.68V561.73H440V553.38Z" fill="#E2E5F1"/>
<path d="M458.85 558.75H457.52V567.1H451.84V590.18H457.52V629.18H458.85V590.18H464.54V567.1H458.85V558.75Z" fill="#E2E5F1"/>
<path d="M477.682 539.24H476.352V542.43H470.672V592.95H476.352V609.69H477.682V592.95H483.362V542.43H477.682V539.24Z" fill="#8AE2E9"/>
<path d="M496.512 534.04H495.182V564.46H489.492V587.61H495.182V604.49H496.512V587.65H502.192V564.5H496.512V534.04Z" fill="#E2E5F1"/>
<path d="M515.33 527.04H514V551.53H508.32V583.81H514V597.49H515.33V583.83H521V551.55H515.31L515.33 527.04Z" fill="#E2E5F1"/>
<path d="M534.162 534.04H532.832V542.39H527.152V552.83H532.832V604.49H534.162V552.87H539.842V542.43H534.162V534.04Z" fill="#E2E5F1"/>
<path d="M553 534.04H551.67V542.39H546V592.91H551.69V604.49H553V592.95H558.68V542.43H553V534.04Z" fill="#E2E5F1"/>
<path d="M571.811 532.14H570.481V542.27H564.801V623.54H570.481V636.9H571.811V623.54H577.501V542.27H571.811V532.14Z" fill="#E2E5F1"/>
<path d="M590.637 514.959H589.307V523.309H583.617V573.829H589.307V585.409H590.637V573.829H596.317V523.309H590.637V514.959Z" fill="#E2E5F1"/>
<path d="M609.469 534.04H608.129V542.39H602.449V573.79H608.129V604.49H609.469V573.79H615.149V542.39H609.469V534.04Z" fill="#8AE2E9"/>
<path d="M628.29 598.75H627V607.1H621.32V622.8H627V644.49H628.33V622.8H634V607.1H628.31L628.29 598.75Z" fill="#E2E5F1"/>
<path d="M647.122 588.75H645.792V597.1H640.102V603.27H645.792V625.73H647.122V603.27H652.802V597.1H647.122V588.75Z" fill="#8AE2E9"/>
<path d="M665.94 574.4H664.61V582.75H658.93V633.27H664.61V644.85H665.94V633.27H671.63V582.75H665.94V574.4Z" fill="#E2E5F1"/>
<path d="M684.768 534.04H683.438V542.39H677.758V555.69H683.438V576.04H684.768V555.73H690.458V542.43H684.768V534.04Z" fill="#E2E5F1"/>
<path d="M703.6 534.04H702.27V542.39H696.59V608.27H702.27V617.55H703.6V608.27H709.28V542.43H703.6V534.04Z" fill="#E2E5F1"/>
<path d="M722.43 569.31H721.09V572.85H715.41V623.37H721.09V639.76H722.43V623.37H728.11V572.85H722.43V569.31Z" fill="#E2E5F1"/>
<path d="M741.248 537.24H739.918V562.95H734.238V572.44H739.918V582.9H741.248V572.44H746.928V562.95H741.248V537.24Z" fill="#E2E5F1"/>
<path d="M760.08 488.38H758.75V505.9H753.07V572.21H758.75V583.79H760.08V572.21H765.76V505.9H760.08V488.38Z" fill="#E2E5F1"/>
<path d="M778.911 503.5H777.571V505.97H771.891V514.44H777.571V520.14H778.911V514.44H784.591V505.97H778.911V503.5Z" fill="#E2E5F1"/>
<path d="M797.733 455.16H796.403V463.51H790.723V514.04H796.403V525.63H797.733V514.04H803.423V463.51H797.733V455.16Z" fill="#8AE2E9"/>
<path d="M816.559 447.53H815.229V482.75H809.539V506.39H815.229V517.97H816.559V506.39H822.239V482.75H816.559V447.53Z" fill="#E2E5F1"/>
<path d="M854.209 499.72H852.879V509.85H847.199V519.04H852.879V538.74H854.209V519.04H859.889V509.87H854.209V499.72Z" fill="#E2E5F1"/>
<path d="M891.872 454.57H890.532V466.39H884.852V491.65H890.532V503.23H891.872V491.65H897.552V466.39H891.872V454.57Z" fill="#E2E5F1"/>
<path d="M910.69 463.83H909.36V472.18H903.68V539.79H909.36V548.04H910.69V539.79H916.38V472.18H910.69V463.83Z" fill="#8AE2E9"/>
<path d="M929.52 439.62H928.18V443.8H922.5V494.32H928.18V510.04H929.52V494.32H935.2V443.8H929.52V439.62Z" fill="#E2E5F1"/>
<path d="M948.34 424.96H947V433.31H941.32V463.09H947V495.41H948.33V463.09H954V433.31H948.31L948.34 424.96Z" fill="#E2E5F1"/>
<path d="M967.17 425.37H965.84V433.73H960.16V449.73H965.84V463.46H967.17V449.77H972.85V433.77H967.17V425.37Z" fill="#E2E5F1"/>
<path d="M986 438.04H984.67V446.86H979V457.14H984.69V488.83H986V457.14H991.68V446.83H986V438.04Z" fill="#8AE2E9"/>
<path d="M1004.82 360.27H1003.49V386.44H997.809V436.96H1003.49V448.54H1004.82V436.96H1010.51V386.44H1004.82V360.27Z" fill="#E2E5F1"/>
<path d="M1023.65 377.27H1022.32V386.44H1016.64V502.95H1022.32V514.53H1023.65V502.95H1029.34V386.44H1023.65V377.27Z" fill="#E2E5F1"/>
<path d="M1042.48 404.96H1041.15V413.31H1035.46V463.83H1041.15V475.41H1042.48V463.83H1048.16V413.31H1042.48V404.96Z" fill="#E2E5F1"/>
<path d="M1061.31 434.96H1060V443.31H1054.32V460.14H1060V493.83H1061.34V460.14H1067V443.31H1061.32L1061.31 434.96Z" fill="#E2E5F1"/>
<path d="M1080.13 405.16H1078.8V445.11H1073.12V452.86H1078.8V475.61H1080.13V452.86H1085.81V445.11H1080.13V405.16Z" fill="#E2E5F1"/>
<path d="M1099 403.54H1097.67V411.89H1091.98V462.41H1097.67V474.04H1099V462.41H1104.68V411.89H1099V403.54Z" fill="#8AE2E9"/>
<path d="M1136.61 353.54H1135.28V392.34H1129.6V414.4H1135.28V424.04H1136.61V414.45H1142.29V392.34H1136.61V353.54Z" fill="#E2E5F1"/>
<path d="M1155.44 355.04H1154.11V399.61H1148.42V406.26H1154.11V425.49H1155.44V406.26H1161.12V399.61H1155.44V355.04Z" fill="#E2E5F1"/>
<path d="M1174.26 356.79H1172.93V365.31H1167.25V372.04H1172.93V392.04H1174.26V372.04H1180V365.28H1174.31L1174.26 356.79Z" fill="#E2E5F1"/>
<path d="M1211.92 340.15H1210.59V348.5H1204.91V399.04H1210.59V410.62H1211.92V399.04H1217.6V348.5H1211.92V340.15Z" fill="#E2E5F1"/>
<path d="M1230.74 357.19H1229.41V365.54H1223.73V381.93H1229.41V427.64H1230.74V381.93H1236.43V365.54H1230.74V357.19Z" fill="#E2E5F1"/>
<path d="M1249.57 307.19H1248.24V315.54H1242.56V366.04H1248.24V377.64H1249.57V366.04H1255.25V315.54H1249.57V307.19Z" fill="#8AE2E9"/>
<path d="M1268.4 283.35H1267.07V291.7H1261.38V364.98H1267.07V374.6H1268.4V364.98H1274.08V291.7H1268.4V283.35Z" fill="#E2E5F1"/>
<path d="M1287.22 296.83H1285.89V305.18H1280.21V355.7H1285.89V367.28H1287.22V355.7H1292.91V305.18H1287.22V296.83Z" fill="#E2E5F1"/>
<path d="M1306.05 381.7H1304.72V401.2H1299V420.04H1304.68V430.64H1306.01V420.04H1311.69V401.24H1306.01L1306.05 381.7Z" fill="#E2E5F1"/>
<path d="M1324.88 301.89H1323.55V310.25H1317.86V360.77H1323.55V372.34H1324.88V360.77H1330.56V310.25H1324.88V301.89Z" fill="#E2E5F1"/>
<path d="M1343.7 322.36H1342.37V350.54H1336.69V381.23H1342.37V392.81H1343.7V381.23H1349.39V350.54H1343.7V322.36Z" fill="#E2E5F1"/>
<path d="M1362.53 304.04H1361.2V334.11H1355.52V348.76H1361.2V360.34H1362.53V348.8H1368.21V334.15H1362.53V304.04Z" fill="#8AE2E9"/>
<path d="M1381.36 348.75H1380V357.09H1374.32V368.5H1380V386.89H1381.33V368.5H1387V357.09H1381.32L1381.36 348.75Z" fill="#E2E5F1"/>
<path d="M1400.18 268.53H1398.85V276.89H1393.17V327.4H1398.85V339.04H1400.18V327.4H1405.87V276.89H1400.18V268.53Z" fill="#E2E5F1"/>
<path d="M1419 284.4H1417.67V295.26H1412V360.98H1417.68V376.04H1419V360.98H1424.68V295.26H1419V284.4Z" fill="#E2E5F1"/>
<path d="M1437.84 304.04H1436.51V322.48H1430.82V337.48H1436.51V344.92H1437.84V337.48H1443.52V322.48H1437.84V304.04Z" fill="#E2E5F1"/>
<path d="M1456.66 283.12H1455.33V306.12H1449.65V337.4H1455.33V353.51H1456.66V337.45H1462.35V306.17H1456.66V283.12Z" fill="#E2E5F1"/>
<path d="M1475.49 245.04H1474.16V253.39H1468.48V303.91H1474.16V315.49H1475.49V303.87H1481.17V253.35H1475.49V245.04Z" fill="#E2E5F1"/>
<path d="M426.877 593.04H414.188V597.23H426.877V593.04Z" fill="#E2E5F1"/>
<path d="M835.387 485.74H834.047V497.55H828.367V512.04H834.047V523.62H835.387V512.04H841.067V497.55H835.387V485.74Z" fill="#E2E5F1"/>
<path d="M878.72 472.37H866V479.04H878.69L878.72 472.37Z" fill="#E2E5F1"/>
<path d="M1117.79 373.089H1116.46V411.889H1110.77V431.159H1116.46V443.539H1117.79V431.159H1123.47V411.889H1117.79V373.089Z" fill="#8AE2E9"/>
<path d="M1193.09 333.54H1191.76V341.89H1186.08V392.41H1191.76V404.04H1193.09V392.41H1198.78V341.89H1193.09V333.54Z" fill="#E2E5F1"/>
<path d="M1500 277.04H1494.32V268.64H1493V277.04H1487.31V327.56H1493V339.14H1494.33V327.51H1500V277.04Z" fill="#E2E5F1"/>
</g>
<g filter="url(#filter0_dd_5896_37080)">
<circle cx="914.267" cy="321.519" r="35" transform="rotate(1 914.267 321.519)" fill="white"/>
<path d="M929.784 316.802C930.562 312.158 927.06 309.593 922.241 307.838L923.924 301.558L920.101 300.534L918.463 306.649C917.458 306.38 916.425 306.124 915.399 305.871L917.049 299.716L913.228 298.692L911.545 304.97C910.712 304.766 909.895 304.563 909.103 304.351L909.107 304.332L903.835 302.917L902.742 307C902.742 307 905.58 307.703 905.519 307.742C907.067 308.158 907.33 309.192 907.269 310.007L905.352 317.161C905.459 317.19 905.597 317.232 905.749 317.296C905.622 317.262 905.486 317.225 905.345 317.188L902.659 327.211C902.46 327.68 901.966 328.38 900.883 328.092C900.921 328.149 898.105 327.347 898.105 327.347L896.122 331.709L901.097 333.042C902.022 333.291 902.929 333.551 903.822 333.796L902.121 340.148L905.94 341.172L907.624 334.887C908.666 335.19 909.679 335.47 910.67 335.735L908.992 341.99L912.815 343.014L914.515 336.674C921.04 338.027 925.972 337.613 928.148 331.728C929.901 326.989 928.196 324.208 924.783 322.354C927.301 321.819 929.22 320.202 929.784 316.802ZM920.796 328.951C919.526 333.698 911.543 330.98 908.952 330.289L911.208 321.873C913.799 322.568 922.123 324 920.796 328.951ZM922.2 316.601C921.041 320.919 914.398 318.599 912.24 318.021L914.285 310.388C916.443 310.966 923.406 312.096 922.2 316.601Z" fill="#19B1BD"/>
</g>
<g filter="url(#filter1_dd_5896_37080)">
<path d="M861.547 56.2224C866.494 73.4763 884.492 83.4527 901.746 78.5052C919 73.5577 928.976 55.5599 924.029 38.3059C919.081 21.052 901.083 11.0757 883.829 16.0232C866.575 20.9706 856.599 38.9684 861.547 56.2224Z" fill="white"/>
<path d="M899.898 41.8083L889.269 35.9165L883.377 46.5456L877.215 43.1381L886.524 26.3442L903.311 35.6497L899.898 41.8083ZM913.847 41.4895L907.669 38.0653L904.25 44.2413L910.422 47.6668L913.847 41.4895ZM901.848 48.611L895.956 59.24L885.327 53.3483L881.902 59.5208L898.701 68.8124L908.007 52.0248L901.848 48.611ZM880.951 50.9222L874.778 47.4967L871.378 53.6671L877.556 57.0912L880.951 50.9222ZM887.753 48.9716L894.006 52.4373L897.472 46.185L896.376 45.5736L895.845 45.279L891.219 42.7192L887.753 48.9716Z" fill="#19B1BD"/>
</g>
<g filter="url(#filter2_dd_5896_37080)">
<circle cx="1410.06" cy="540.036" r="35" transform="rotate(29 1410.06 540.036)" fill="white"/>
<path opacity="0.600006" d="M1413.59 534.179L1395.95 532.773L1405.42 548.916L1424.14 548.397L1413.59 534.179Z" fill="#19B1BD"/>
<path opacity="0.449997" d="M1395.95 532.773L1405.43 548.916L1413.6 534.179L1423.01 517.2L1395.95 532.773Z" fill="#19B1BD"/>
<path opacity="0.800003" d="M1423.01 517.2L1413.6 534.179L1405.43 548.915L1424.14 548.397L1423.01 517.2Z" fill="#19B1BD"/>
<path opacity="0.449997" d="M1394.47 535.445L1397.55 563.118L1403.95 551.584L1394.47 535.445Z" fill="#19B1BD"/>
<path opacity="0.800003" d="M1403.95 551.584L1397.55 563.118L1422.66 551.074L1403.95 551.584Z" fill="#19B1BD"/>
</g>
<g clip-path="url(#clip1_5896_37080)" filter="url(#filter3_dd_5896_37080)">
<path d="M1349.79 190.384C1364.42 182.605 1369.97 164.44 1362.19 149.811C1354.42 135.182 1336.25 129.629 1321.62 137.407C1306.99 145.186 1301.44 163.35 1309.22 177.98C1317 192.609 1335.16 198.162 1349.79 190.384Z" fill="white"/>
<path fill-rule="evenodd" clip-rule="evenodd" d="M1340.1 164.494L1340.1 164.49C1339.93 164.6 1339.02 165.156 1336.92 166.269C1335.25 167.158 1334.05 167.735 1333.62 167.935L1333.63 167.94C1327.04 171.079 1321.64 172.513 1320.93 171.172C1320.21 169.833 1324.42 166.157 1330.71 162.447L1333.03 166.824C1333.47 166.63 1334.71 166.061 1336.38 165.175C1338.38 164.113 1339.33 163.497 1339.51 163.381L1337.19 159.006C1343.76 155.877 1349.15 154.449 1349.86 155.787C1350.58 157.128 1346.38 160.794 1340.1 164.494ZM1336.94 158.55L1334.86 154.633L1343.82 149.868L1340.65 143.895L1316.24 156.87L1319.42 162.844L1328.38 158.078L1330.47 161.993C1323.36 166.201 1318.65 170.557 1319.57 172.285C1320.49 174.014 1326.73 172.543 1334.19 169.006L1340.87 181.558L1347.35 178.114L1340.67 165.558C1347.77 161.357 1352.46 157.009 1351.55 155.282C1350.63 153.556 1344.4 155.019 1336.94 158.55Z" fill="#19B1BD"/>
</g>
<ellipse cx="1129.5" cy="319" rx="307.5" ry="310" fill="url(#paint0_radial_5896_37080)"/>
<defs>
<filter id="filter0_dd_5896_37080" x="859.66" y="271.313" width="109.211" height="109.211" filterUnits="userSpaceOnUse" color-interpolation-filters="sRGB">
<feFlood flood-opacity="0" result="BackgroundImageFix"/>
<feColorMatrix in="SourceAlpha" type="matrix" values="0 0 0 0 0 0 0 0 0 0 0 0 0 0 0 0 0 0 127 0" result="hardAlpha"/>
<feMorphology radius="1" operator="erode" in="SourceAlpha" result="effect1_dropShadow_5896_37080"/>
<feOffset dy="4"/>
<feGaussianBlur stdDeviation="4.5"/>
<feColorMatrix type="matrix" values="0 0 0 0 0.0745098 0 0 0 0 0.0627451 0 0 0 0 0.133333 0 0 0 0.03 0"/>
<feBlend mode="normal" in2="BackgroundImageFix" result="effect1_dropShadow_5896_37080"/>
<feColorMatrix in="SourceAlpha" type="matrix" values="0 0 0 0 0 0 0 0 0 0 0 0 0 0 0 0 0 0 127 0" result="hardAlpha"/>
<feMorphology radius="1" operator="erode" in="SourceAlpha" result="effect2_dropShadow_5896_37080"/>
<feOffset dy="4.4"/>
<feGaussianBlur stdDeviation="10"/>
<feColorMatrix type="matrix" values="0 0 0 0 0.0745098 0 0 0 0 0.0627451 0 0 0 0 0.133333 0 0 0 0.05 0"/>
<feBlend mode="normal" in2="effect1_dropShadow_5896_37080" result="effect2_dropShadow_5896_37080"/>
<feBlend mode="normal" in="SourceGraphic" in2="effect2_dropShadow_5896_37080" result="shape"/>
</filter>
<filter id="filter1_dd_5896_37080" x="833.59" y="-7.53506" width="118.398" height="118.398" filterUnits="userSpaceOnUse" color-interpolation-filters="sRGB">
<feFlood flood-opacity="0" result="BackgroundImageFix"/>
<feColorMatrix in="SourceAlpha" type="matrix" values="0 0 0 0 0 0 0 0 0 0 0 0 0 0 0 0 0 0 127 0" result="hardAlpha"/>
<feMorphology radius="1" operator="erode" in="SourceAlpha" result="effect1_dropShadow_5896_37080"/>
<feOffset dy="4"/>
<feGaussianBlur stdDeviation="4.5"/>
<feColorMatrix type="matrix" values="0 0 0 0 0.0745098 0 0 0 0 0.0627451 0 0 0 0 0.133333 0 0 0 0.03 0"/>
<feBlend mode="normal" in2="BackgroundImageFix" result="effect1_dropShadow_5896_37080"/>
<feColorMatrix in="SourceAlpha" type="matrix" values="0 0 0 0 0 0 0 0 0 0 0 0 0 0 0 0 0 0 127 0" result="hardAlpha"/>
<feMorphology radius="1" operator="erode" in="SourceAlpha" result="effect2_dropShadow_5896_37080"/>
<feOffset dy="4.4"/>
<feGaussianBlur stdDeviation="10"/>
<feColorMatrix type="matrix" values="0 0 0 0 0.0745098 0 0 0 0 0.0627451 0 0 0 0 0.133333 0 0 0 0.05 0"/>
<feBlend mode="normal" in2="effect1_dropShadow_5896_37080" result="effect2_dropShadow_5896_37080"/>
<feBlend mode="normal" in="SourceGraphic" in2="effect2_dropShadow_5896_37080" result="shape"/>
</filter>
<filter id="filter2_dd_5896_37080" x="1343.48" y="477.856" width="133.16" height="133.16" filterUnits="userSpaceOnUse" color-interpolation-filters="sRGB">
<feFlood flood-opacity="0" result="BackgroundImageFix"/>
<feColorMatrix in="SourceAlpha" type="matrix" values="0 0 0 0 0 0 0 0 0 0 0 0 0 0 0 0 0 0 127 0" result="hardAlpha"/>
<feMorphology radius="1" operator="erode" in="SourceAlpha" result="effect1_dropShadow_5896_37080"/>
<feOffset dy="4"/>
<feGaussianBlur stdDeviation="4.5"/>
<feColorMatrix type="matrix" values="0 0 0 0 0.0745098 0 0 0 0 0.0627451 0 0 0 0 0.133333 0 0 0 0.03 0"/>
<feBlend mode="normal" in2="BackgroundImageFix" result="effect1_dropShadow_5896_37080"/>
<feColorMatrix in="SourceAlpha" type="matrix" values="0 0 0 0 0 0 0 0 0 0 0 0 0 0 0 0 0 0 127 0" result="hardAlpha"/>
<feMorphology radius="1" operator="erode" in="SourceAlpha" result="effect2_dropShadow_5896_37080"/>
<feOffset dy="4.4"/>
<feGaussianBlur stdDeviation="10"/>
<feColorMatrix type="matrix" values="0 0 0 0 0.0745098 0 0 0 0 0.0627451 0 0 0 0 0.133333 0 0 0 0.05 0"/>
<feBlend mode="normal" in2="effect1_dropShadow_5896_37080" result="effect2_dropShadow_5896_37080"/>
<feBlend mode="normal" in="SourceGraphic" in2="effect2_dropShadow_5896_37080" result="shape"/>
</filter>
<filter id="filter3_dd_5896_37080" x="1276.13" y="108.723" width="119.145" height="119.146" filterUnits="userSpaceOnUse" color-interpolation-filters="sRGB">
<feFlood flood-opacity="0" result="BackgroundImageFix"/>
<feColorMatrix in="SourceAlpha" type="matrix" values="0 0 0 0 0 0 0 0 0 0 0 0 0 0 0 0 0 0 127 0" result="hardAlpha"/>
<feMorphology radius="1" operator="erode" in="SourceAlpha" result="effect1_dropShadow_5896_37080"/>
<feOffset dy="4"/>
<feGaussianBlur stdDeviation="4.5"/>
<feColorMatrix type="matrix" values="0 0 0 0 0.0745098 0 0 0 0 0.0627451 0 0 0 0 0.133333 0 0 0 0.03 0"/>
<feBlend mode="normal" in2="BackgroundImageFix" result="effect1_dropShadow_5896_37080"/>
<feColorMatrix in="SourceAlpha" type="matrix" values="0 0 0 0 0 0 0 0 0 0 0 0 0 0 0 0 0 0 127 0" result="hardAlpha"/>
<feMorphology radius="1" operator="erode" in="SourceAlpha" result="effect2_dropShadow_5896_37080"/>
<feOffset dy="4.4"/>
<feGaussianBlur stdDeviation="10"/>
<feColorMatrix type="matrix" values="0 0 0 0 0.0745098 0 0 0 0 0.0627451 0 0 0 0 0.133333 0 0 0 0.05 0"/>
<feBlend mode="normal" in2="effect1_dropShadow_5896_37080" result="effect2_dropShadow_5896_37080"/>
<feBlend mode="normal" in="SourceGraphic" in2="effect2_dropShadow_5896_37080" result="shape"/>
</filter>
<radialGradient id="paint0_radial_5896_37080" cx="0" cy="0" r="1" gradientUnits="userSpaceOnUse" gradientTransform="translate(1153 312) rotate(128.211) scale(299.082 276.806)">
<stop stop-color="#19B1BD"/>
<stop offset="1" stop-color="white" stop-opacity="0"/>
</radialGradient>
<clipPath id="clip0_5896_37080">
<rect width="1500" height="425" fill="white" transform="translate(0 246)"/>
</clipPath>
<clipPath id="clip1_5896_37080">
<rect width="60" height="60" fill="white" transform="translate(1295.13 151.491) rotate(-28)"/>
</clipPath>
</defs>
</svg>
